<svg fill="#000000" xmlns="http://www.w3.org/2000/svg"  viewBox="0 0 50 50" width="50px" height="50px"><path d="M25,2C12.3,2,2,12.3,2,25s10.3,23,23,23s23-10.3,23-23S37.7,2,25,2z M36.2,20.5c0,0.2,0,0.5,0,0.7c0,7.3-5.6,15.8-15.8,15.8	c-3.1,0-6-0.9-8.5-2.5c0.4,0.1,0.9,0.1,1.3,0.1c2.6,0,5-0.9,6.9-2.4c-2.4,0-4.5-1.6-5.2-3.8c0.3,0.1,0.7,0.1,1,0.1	c0.5,0,1-0.1,1.5-0.2c-2.5-0.5-4.4-2.7-4.4-5.4v-0.1c0.7,0.4,1.6,0.7,2.5,0.7c-1.5-1-2.5-2.7-2.5-4.6c0-1,0.3-2,0.7-2.8	c2.7,3.4,6.8,5.6,11.4,5.8c-0.1-0.4-0.1-0.8-0.1-1.3c0-3.1,2.5-5.5,5.5-5.5c1.6,0,3,0.7,4,1.7c1.3-0.2,2.4-0.7,3.5-1.3	c-0.4,1.3-1.3,2.4-2.4,3.1c1.1-0.1,2.2-0.4,3.2-0.9C38.3,18.8,37.3,19.7,36.2,20.5z"/></svg>