<svg width="24" height="24" viewBox="0 0 24 24" fill="none" xmlns="http://www.w3.org/2000/svg">
<path d="M24 4.55654C23.1169 4.94873 22.168 5.21203 21.1724 5.3327C22.1899 4.72384 22.9688 3.75844 23.3363 2.60928C22.3846 3.17426 21.3288 3.58291 20.2098 3.80506C19.313 2.84789 18.0322 2.25 16.6171 2.25C13.8965 2.25 11.6915 4.45232 11.6915 7.173C11.6915 7.5597 11.7353 7.93544 11.8176 8.29473C7.72575 8.08903 4.09736 6.1308 1.67021 3.14958C1.24786 3.87637 1.00377 4.72384 1.00377 5.62616C1.00377 7.33481 1.87316 8.84051 3.19232 9.72363C2.38601 9.69895 1.62633 9.47679 0.962633 9.10654V9.16962C0.962633 11.5557 2.66027 13.5441 4.9119 13.9966C4.50051 14.1091 4.06445 14.1694 3.61467 14.1694C3.29654 14.1694 2.98937 14.1392 2.69044 14.0816C3.31574 16.0371 5.13404 17.4605 7.28694 17.5017C5.60302 18.8209 3.48303 19.608 1.17381 19.608C0.77614 19.608 0.386699 19.5861 0 19.5395C2.18032 20.9354 4.76654 21.75 7.54748 21.75C16.6034 21.75 21.5564 14.2489 21.5564 7.74346C21.5564 7.52954 21.5509 7.31835 21.5427 7.10717C22.5053 6.41055 23.3418 5.54388 24 4.55654Z" fill="#C0C0C0"/>
</svg>
